<svg width="286" height="280" viewBox="0 0 286 280" fill="none" xmlns="http://www.w3.org/2000/svg">
<rect width="286" height="280" fill="none"/>
<g id="readerai_logo">
<g id="Readerai_logo">
<circle id="Ellipse 11" cx="104" cy="102" r="26" fill="#9875FD"/>
<circle id="Ellipse 12" cx="26" cy="102" r="26" fill="#A17CEF"/>
<circle id="Ellipse 24" cx="260" cy="26" r="26" fill="#C6ABFF"/>
<circle id="Ellipse 23" cx="260" cy="102" r="26" fill="#B394F5"/>
<circle id="Ellipse 25" cx="260" cy="178" r="26" fill="#9F77F5"/>
<circle id="Ellipse 26" cx="260" cy="254" r="26" fill="#8C67DC"/>
<circle id="Ellipse 22" cx="182" cy="26" r="26" fill="#B89FFF"/>
<circle id="Ellipse 21" cx="104" cy="26" r="26" fill="#B094FF"/>
<circle id="Ellipse 20" cx="26" cy="26" r="26" fill="#9E7EF9"/>
<circle id="Ellipse 14" cx="182" cy="254" r="26" fill="#8562E6"/>
<circle id="Ellipse 19" cx="182" cy="102" r="26" fill="#A78CF3"/>
<circle id="Ellipse 18" cx="182" cy="178" r="26" fill="#8E6BF2"/>
<circle id="Ellipse 17" cx="104" cy="178" r="26" fill="#916EF7"/>
<circle id="Ellipse 16" cx="104" cy="254" r="26" fill="#845DF2"/>
<circle id="Ellipse 15" cx="26" cy="178" r="26" fill="#8F6AF5"/>
<circle id="Ellipse 13" cx="26" cy="254" r="26" fill="#7A53E8"/>
<line id="Line 1" x1="26.5" y1="52" x2="26.5" y2="76" stroke="#4F4F4F"/>
<line id="Line 16" x1="260.5" y1="52" x2="260.5" y2="76" stroke="#777777"/>
<line id="Line 17" x1="260.5" y1="128" x2="260.5" y2="152" stroke="#515151"/>
<line id="Line 18" x1="260.5" y1="204" x2="260.5" y2="228" stroke="#414141"/>
<line id="Line 2" x1="26.5" y1="128" x2="26.5" y2="152" stroke="#505050"/>
<line id="Line 3" x1="26.5" y1="204" x2="26.5" y2="228" stroke="#2B2B2B"/>
<line id="Line 4" x1="52" y1="253.5" x2="78" y2="253.5" stroke="#444444"/>
<line id="Line 5" x1="130" y1="253.5" x2="156" y2="253.5" stroke="#4D4D4D"/>
<line id="Line 8" x1="130" y1="177.5" x2="156" y2="177.5" stroke="#5E5C5C"/>
<line id="Line 9" x1="208" y1="177.5" x2="234" y2="177.5" stroke="#4F4F4F"/>
<line id="Line 7" x1="52" y1="177.5" x2="78" y2="177.5" stroke="#4F4F4F"/>
<line id="Line 10" x1="52" y1="101.5" x2="78" y2="101.5" stroke="#636363"/>
<line id="Line 13" x1="52" y1="25.5" x2="78" y2="25.5" stroke="#4F4F4F"/>
<line id="Line 14" x1="130" y1="25.5" x2="156" y2="25.5" stroke="#555555"/>
<line id="Line 15" x1="208" y1="25.5" x2="234" y2="25.5" stroke="#7A7A7A"/>
<line id="Line 11" x1="130" y1="101.5" x2="156" y2="101.5" stroke="#6B6A6A"/>
<line id="Line 12" x1="208" y1="101.5" x2="234" y2="101.5" stroke="#6D6D6D"/>
<line id="Line 6" x1="208" y1="253.5" x2="234" y2="253.5" stroke="#5A5A5A"/>
<line id="Line 19" x1="44.6554" y1="235.638" x2="85.6554" y2="196.638" stroke="#333333"/>
<line id="Line 22" x1="203.659" y1="87.6339" x2="246.659" y2="47.6339" stroke="#646464"/>
<line id="Line 23" x1="44.3491" y1="44.642" x2="84.3491" y2="83.642" stroke="#575757"/>
<line id="Line 24" x1="45.6464" y1="160.646" x2="85.6464" y2="120.646" stroke="#474747"/>
<path id="Line 27" d="M201 236L241 196" stroke="#606060"/>
<line id="Line 28" x1="123.354" y1="195.646" x2="163.354" y2="235.646" stroke="#343434"/>
<line id="Line 29" x1="121.354" y1="45.6464" x2="161.354" y2="85.6464" stroke="#616161"/>
<line id="Line 30" x1="122.354" y1="120.646" x2="162.354" y2="160.646" stroke="#4A4A4A"/>
<line id="Line 31" x1="202.664" y1="162.63" x2="245.664" y2="123.63" stroke="#454545"/>
</g>
</g>
</svg>
